<?xml version="1.0" encoding="utf-8"?>
<!-- Generator: Adobe Illustrator 19.2.1, SVG Export Plug-In . SVG Version: 6.00 Build 0)  -->
<svg version="1.1"
	 id="svg2" inkscape:output_extension="org.inkscape.output.svg.inkscape" inkscape:version="0.45.1" sodipodi:docbase="C:\My Pictures\armor" sodipodi:docname="US-OF5.svg" sodipodi:version="0.32" xmlns:cc="http://web.resource.org/cc/" xmlns:dc="http://purl.org/dc/elements/1.1/" xmlns:inkscape="http://www.inkscape.org/namespaces/inkscape" xmlns:rdf="http://www.w3.org/1999/02/22-rdf-syntax-ns#" xmlns:sodipodi="http://sodipodi.sourceforge.net/DTD/sodipodi-0.dtd" xmlns:svg="http://www.w3.org/2000/svg"
	 xmlns="http://www.w3.org/2000/svg" xmlns:xlink="http://www.w3.org/1999/xlink" x="0px" y="0px" width="210px" height="150px"
	 viewBox="0 0 210 150" style="enable-background:new 0 0 210 150;" xml:space="preserve">
<style type="text/css">
	.st0{fill:#1A374F;}
	.st1{fill:#F3C463;}
</style>
<sodipodi:namedview  bordercolor="#666666" borderopacity="1.0" gridtolerance="10000" guidetolerance="10" id="base" inkscape:current-layer="layer2" inkscape:cx="184.27785" inkscape:cy="220.86721" inkscape:document-units="px" inkscape:pageopacity="0.0" inkscape:pageshadow="2" inkscape:window-height="712" inkscape:window-width="1024" inkscape:window-x="1020" inkscape:window-y="-4" inkscape:zoom="0.70710678" objecttolerance="10" pagecolor="#ffffff">
	</sodipodi:namedview>
<sodipodi:namedview  bordercolor="#666666" borderopacity="1.0" gridtolerance="10000" guidetolerance="10" id="base" inkscape:current-layer="layer2" inkscape:cx="184.27785" inkscape:cy="220.86721" inkscape:document-units="px" inkscape:pageopacity="0.0" inkscape:pageshadow="2" inkscape:window-height="712" inkscape:window-width="1024" inkscape:window-x="1020" inkscape:window-y="-4" inkscape:zoom="0.70710678" objecttolerance="10" pagecolor="#ffffff">
	</sodipodi:namedview>
<path class="st0" d="M65,138.4c0-0.2,0-0.4,0-0.6c0-27.5,0-55,0-82.5c0-0.1,0-0.2,0-0.3c0-0.2,0.1-0.4,0.2-0.5
	c0.6-0.5,1.2-1,1.9-1.4c14.6-11.6,25.8-25.8,33.8-42.7c1.4-3.1,2.8-6.2,3.9-9.4c0.1-0.1,0.1-0.3,0.2-0.5c0.1,0.2,0.1,0.3,0.2,0.4
	c2.5,6.9,5.7,13.5,9.4,19.8c7.8,13.1,17.8,24.3,29.9,33.6c0.7,0.5,0.5,0.2,0.5,1.1c0,27.5,0,54.9,0,82.4c0,0.8,0.1,0.5-0.5,1
	c-6.4,4.2-13.4,7.3-20.8,9.3c-3.1,0.8-6.2,1.4-9.3,1.8c-3.7,0.5-7.5,0.7-11.2,0.6c-2.3-0.1-4.5-0.2-6.8-0.5
	c-6.8-0.8-13.4-2.6-19.7-5.3c-4-1.7-7.8-3.7-11.4-6.1C65.1,138.6,65.1,138.5,65,138.4z M105,60.4c-0.2,0.2-0.3,0.4-0.5,0.5
	c-1.2,1.3-2.4,2.5-3.6,3.8c-9.3,9.4-19.6,17.5-31,24.2c-0.3,0.2-0.4,0.4-0.4,0.7c0,4.1,0,8.2,0,12.3c0,0.3,0.1,0.6,0.3,0.9
	c7.6,10.6,19.7,17.5,33.5,18c3.7,0.1,7.3-0.2,10.9-1c11-2.6,19.6-8.6,26-17.8c0.2-0.2,0.2-0.5,0.2-0.8c0-3.9,0-7.7,0-11.6
	c0-0.4-0.1-0.6-0.4-0.8c-3.6-2.1-7.2-4.4-10.6-6.8c-8.8-6.2-16.8-13.3-24.1-21.2C105.2,60.6,105.1,60.5,105,60.4z M105,32.3
	c0.1,0.2,0.2,0.3,0.3,0.4c0.8,1.2,1.6,2.4,2.5,3.6c6,8.5,13,16.2,20.9,23.1c3.6,3.2,7.4,6.2,11.4,8.9c0.1,0.1,0.2,0.1,0.4,0.3
	c0-0.2,0-0.4,0-0.6c0-3.3,0-6.6,0-9.9c0-0.4-0.1-0.6-0.4-0.8c-3.5-2.7-6.7-5.5-9.9-8.5c-6.2-5.9-11.7-12.4-16.5-19.5
	c-3.1-4.5-5.9-9.3-8.3-14.2c-0.1-0.2-0.2-0.4-0.3-0.6c-0.1,0.3-0.2,0.4-0.3,0.6c-1.3,2.6-2.7,5.2-4.2,7.7
	C94.8,32.4,87.9,41,79.9,48.7c-3.2,3.1-6.5,5.9-10,8.6c-0.2,0.2-0.4,0.4-0.4,0.7c0,3.4,0,6.7,0,10.1c0,0.1,0,0.2,0,0.4
	C83.7,58.7,95.5,46.6,105,32.3z M140.4,83.7c0-0.2,0-0.2,0-0.3c0-3.1,0-6.2,0-9.3c0-0.2-0.1-0.4-0.2-0.5c-0.1-0.1-0.2-0.2-0.4-0.2
	c-7.2-4.8-13.9-10.3-20.1-16.3c-5.3-5.2-10.1-10.8-14.5-16.7c-0.1-0.1-0.2-0.2-0.3-0.4c-0.1,0-0.1,0-0.1,0.1
	c-0.1,0.1-0.2,0.2-0.3,0.4C98.3,49.1,91,56.9,82.9,63.8c-4.1,3.5-8.4,6.8-13,9.8c-0.3,0.2-0.4,0.4-0.4,0.7c0,3,0,6,0,9
	c0,0.1,0,0.3,0,0.5c2.3-1.4,4.5-2.8,6.6-4.3c2.1-1.5,4.2-3,6.3-4.6c2.1-1.6,4.1-3.2,6-4.9c2-1.7,3.9-3.4,5.8-5.2
	c1.9-1.8,3.7-3.6,5.5-5.5c1.8-1.9,3.5-3.8,5.3-5.8C115.2,65.4,127,75.5,140.4,83.7z M140.5,108.3c-9.5,10.6-21.1,16.3-35.3,16.5
	c-14.2,0.1-26-5.4-35.6-15.8c0,0.2,0,0.3,0,0.4c0,3.5,0,7,0,10.5c0,0.4,0.1,0.6,0.4,0.8c4.9,4,10.4,7.1,16.4,9.2
	c5,1.8,10.1,2.8,15.3,3.1c2.7,0.2,5.3,0.1,8-0.1c2.5-0.2,5-0.6,7.4-1.2c8.6-2,16.3-5.8,23.1-11.5c0.3-0.2,0.4-0.4,0.4-0.8
	c0-3.6,0-7.2,0-10.8C140.5,108.6,140.5,108.5,140.5,108.3z M140.5,124.8c-10.5,7.9-22.3,12-35.4,12.1c-13.1,0.1-24.9-3.9-35.6-11.7
	c0,0.2,0,0.4,0,0.5c0,3.1,0,6.1,0,9.2c0,0.3,0.1,0.5,0.4,0.7c9.7,5.8,20.1,9,31.4,9.6c2.9,0.2,5.8,0.1,8.7-0.1
	c2.9-0.2,5.7-0.6,8.5-1.2c7.7-1.6,14.9-4.5,21.6-8.6c0.3-0.2,0.4-0.4,0.4-0.7c0-3.1,0-6.2,0-9.3C140.5,125.1,140.5,125,140.5,124.8z
	"/>
<path class="st1" d="M105,60.4c0.1,0.2,0.2,0.3,0.3,0.4c7.3,7.9,15.3,15,24.1,21.2c3.4,2.4,7,4.7,10.6,6.8c0.3,0.2,0.4,0.4,0.4,0.8
	c0,3.9,0,7.7,0,11.6c0,0.3-0.1,0.5-0.2,0.8c-6.4,9.2-15.1,15.2-26,17.8c-3.6,0.8-7.2,1.2-10.9,1c-13.7-0.5-25.9-7.4-33.5-18
	c-0.2-0.3-0.3-0.6-0.3-0.9c0-4.1,0-8.2,0-12.3c0-0.4,0.1-0.6,0.4-0.7c11.4-6.7,21.7-14.7,31-24.2c1.2-1.2,2.4-2.5,3.6-3.8
	C104.7,60.7,104.8,60.6,105,60.4z M105,72.5c-1.9,1.8-3.7,3.5-5.6,5.2c-1.9,1.7-3.8,3.3-5.8,4.9c-2,1.6-3.9,3.1-6,4.6
	c-2,1.5-4.1,2.9-6.2,4.3c-2.1,1.4-4.2,2.7-6.4,4.1c5.4,9.4,17,17.8,31.9,16.8c13.8-0.9,23.5-9.6,27.5-17.1
	C123.8,88.9,114,81.2,105,72.5z"/>
<path class="st1" d="M105,32.3c-9.5,14.4-21.3,26.4-35.4,36.3c0-0.2,0-0.3,0-0.4c0-3.4,0-6.7,0-10.1c0-0.3,0.1-0.5,0.4-0.7
	c3.5-2.7,6.8-5.6,10-8.6c8-7.7,14.9-16.4,20.6-25.9c1.5-2.5,2.9-5.1,4.2-7.7c0.1-0.2,0.2-0.4,0.3-0.6c0.1,0.2,0.2,0.4,0.3,0.6
	c2.5,4.9,5.3,9.6,8.3,14.2c4.8,7.1,10.3,13.6,16.5,19.5c3.1,3,6.4,5.9,9.9,8.5c0.3,0.2,0.4,0.5,0.4,0.8c0,3.3,0,6.6,0,9.9
	c0,0.2,0,0.3,0,0.6c-0.2-0.1-0.3-0.2-0.4-0.3c-4-2.8-7.8-5.7-11.4-8.9c-7.9-6.9-14.8-14.6-20.9-23.1c-0.8-1.2-1.6-2.4-2.5-3.6
	C105.2,32.6,105.1,32.4,105,32.3z"/>
<path class="st1" d="M140.4,83.7C127,75.5,115.2,65.4,105,53.5c-1.8,1.9-3.5,3.9-5.3,5.8c-1.8,1.9-3.6,3.7-5.5,5.5
	c-1.9,1.8-3.8,3.5-5.8,5.2c-2,1.7-4,3.3-6,4.9c-2.1,1.6-4.2,3.1-6.3,4.6c-2.1,1.5-4.3,2.9-6.6,4.3c0-0.2,0-0.3,0-0.5c0-3,0-6,0-9
	c0-0.3,0.1-0.5,0.4-0.7c4.5-3,8.8-6.3,13-9.8c8.2-7,15.4-14.7,21.7-23.4c0.1-0.1,0.2-0.3,0.3-0.4c0,0,0,0,0.1-0.1
	c0.1,0.1,0.2,0.2,0.3,0.4c4.4,6,9.2,11.6,14.5,16.7c6.2,6.1,12.9,11.5,20.1,16.3c0.1,0.1,0.2,0.2,0.4,0.2c0.2,0.1,0.3,0.2,0.2,0.5
	c0,3.1,0,6.2,0,9.3C140.5,83.5,140.4,83.6,140.4,83.7z"/>
<path class="st1" d="M140.5,108.3c0,0.2,0,0.3,0,0.4c0,3.6,0,7.2,0,10.8c0,0.3-0.1,0.5-0.4,0.8c-6.8,5.7-14.5,9.5-23.1,11.5
	c-2.5,0.6-4.9,0.9-7.4,1.2c-2.7,0.2-5.3,0.3-8,0.1c-5.2-0.3-10.4-1.3-15.3-3.1c-6-2.1-11.5-5.2-16.4-9.2c-0.3-0.2-0.4-0.4-0.4-0.8
	c0-3.5,0-7,0-10.5c0-0.1,0-0.3,0-0.4c9.6,10.4,21.4,15.9,35.6,15.8C119.3,124.7,131,118.9,140.5,108.3z"/>
<path class="st1" d="M140.5,124.8c0,0.2,0,0.4,0,0.5c0,3.1,0,6.2,0,9.3c0,0.3-0.1,0.5-0.4,0.7c-6.7,4.1-13.9,7-21.6,8.6
	c-2.8,0.6-5.6,1-8.5,1.2c-2.9,0.2-5.8,0.3-8.7,0.1c-11.3-0.6-21.7-3.8-31.4-9.6c-0.3-0.2-0.4-0.4-0.4-0.7c0-3.1,0-6.1,0-9.2
	c0-0.1,0-0.3,0-0.5c10.6,7.8,22.5,11.8,35.6,11.7C118.2,136.8,129.9,132.7,140.5,124.8z"/>
<path class="st0" d="M105.2,72.5c8.9,8.8,18.8,16.4,29.5,22.9c-4.1,7.5-13.7,16.2-27.5,17.1c-14.9,1-26.5-7.5-31.9-16.8
	c2.1-1.4,4.3-2.7,6.4-4.1c2.1-1.4,4.2-2.9,6.2-4.3c2-1.5,4-3,6-4.6c2-1.6,3.9-3.2,5.8-4.9C101.5,76,103.3,74.2,105.2,72.5z
	 M105.2,110.2c4.2-5.7,8.4-11.3,12.5-16.8c-0.3-0.6-12.3-16.7-12.5-16.9c-4.2,5.6-8.3,11.2-12.5,16.8C96.8,99,101,104.6,105.2,110.2
	z"/>
<path class="st1" d="M105,110.2c-4.2-5.7-8.4-11.3-12.5-16.9c4.2-5.6,8.3-11.2,12.5-16.8c0.3,0.2,12.2,16.3,12.5,16.9
	C113.4,99,109.2,104.6,105,110.2z M99.8,93.4c1.8,2.4,3.5,4.7,5.2,7.1c1.8-2.4,3.5-4.7,5.2-7c-0.2-0.5-5-6.9-5.3-7.1
	C103.2,88.7,101.5,91,99.8,93.4z"/>
<path class="st0" d="M99.8,93.4c1.7-2.4,3.5-4.7,5.2-7c0.3,0.2,5,6.6,5.3,7.1c-1.7,2.3-3.4,4.6-5.2,7C103.3,98,101.5,95.7,99.8,93.4
	z"/>
</svg>
