<?xml version="1.0" encoding="utf-8"?>
<!-- Generator: Adobe Illustrator 19.2.1, SVG Export Plug-In . SVG Version: 6.00 Build 0)  -->
<svg version="1.1" id="Layer_1" xmlns="http://www.w3.org/2000/svg" xmlns:xlink="http://www.w3.org/1999/xlink" x="0px" y="0px"
	 width="210px" height="150px" viewBox="0 0 210 150" style="enable-background:new 0 0 210 150;" xml:space="preserve">
<style type="text/css">
	.st0{opacity:0;fill:#FFFFFF;}
	.st1{fill:#1A374F;}
	.st2{fill:#F3C463;}
</style>
<rect class="st0" width="210" height="150"/>
<g id="layer1" transform="translate(-331.5,-478.9375)">
	<path id="path7633"  class="st1" d="M436.5,478.9c-12.7,35.2-35.4,65.6-64.7,87.8v62.2
		c24.3-13.1,46.2-30.2,64.7-50.5c18.5,20.3,40.4,37.4,64.7,50.5v-62.2C471.9,544.6,449.2,514.2,436.5,478.9L436.5,478.9z"/>
	<path id="path7661"  class="st2" d="M436.5,501.7c-13.6,27.4-33.3,51.3-57.3,69.8v17.7
		c22.7-15.7,42.2-35.7,57.3-58.7c15.1,23.1,34.6,43,57.3,58.7v-17.7C469.8,553,450.1,529.1,436.5,501.7L436.5,501.7z"/>
	<path id="path7659" class="st2" d="M436.5,542.8c-15.6,21.5-35.1,40.2-57.3,54.8v16.1
		c21.7-13.2,41-29.8,57.3-49c16.3,19.2,35.7,35.8,57.3,49v-16.1C471.6,583,452.1,564.4,436.5,542.8z"/>
</g>
</svg>
