<?xml version="1.0" encoding="utf-8"?>
<!-- Generator: Adobe Illustrator 19.2.1, SVG Export Plug-In . SVG Version: 6.00 Build 0)  -->
<svg version="1.1" xmlns="http://www.w3.org/2000/svg" xmlns:xlink="http://www.w3.org/1999/xlink" x="0px" y="0px" width="210px"
	 height="150px" viewBox="0 0 210 150" style="enable-background:new 0 0 210 150;" xml:space="preserve">
<style type="text/css">
	.st0{fill:none;}
	.st1{fill:#1A374F;}
	.st2{fill:#F3C463;}
</style>
<g id="Layer_2">
	<rect class="st0" width="210" height="150"/>
	<g>
		<path id="path7798_1_"  class="st1" d="M105,0.6c-7.8,21.6-21.8,40.3-39.8,53.9v83.1
			c11.4,7.5,25,11.9,39.6,11.9c0.1,0,0.1,0,0.2,0c0.1,0,0.1,0,0.2,0c14.6,0,28.2-4.4,39.6-11.9V54.5C126.7,40.9,112.7,22.2,105,0.6z
			"/>
		<path id="path7800_1_"  class="st2" d="M105,60.1C94.8,71.3,83,80.9,69.8,88.6v13.2
			c7.7,11.1,20.5,18.3,34.9,18.3c14.8,0,27.8-7.6,35.5-19.1V88.7C127,81,115.2,71.3,105,60.1z M105,72.1
			c8.8,8.7,18.7,16.3,29.4,22.7l0,0c-5.9,10.2-17,17-29.6,17c-12.6,0.1-23.6-6.6-29.6-16.7C86,88.7,96,80.9,105,72.1L105,72.1z"/>
		<path id="path7802_1_"  class="st2" d="M140.2,107.6c-8.5,10.1-21.3,16.5-35.5,16.5
			c-13.9,0-26.4-6.1-35-15.8v11.5c9.5,7.9,21.7,12.6,35,12.6c13.5,0,25.9-4.9,35.5-13.1C140.2,119.3,140.2,107.6,140.2,107.6z"/>
		<path id="path7804_1_"  class="st2" d="M140.2,124c-9.8,7.5-22.1,12-35.5,12
			c-13.1,0-25.2-4.3-35-11.6v10.1c10.2,6.3,22.1,9.9,35,9.9c13,0,25.2-3.7,35.5-10.2V124L140.2,124z"/>
		<path id="path7806_1_"  class="st2" d="M105,14.6c-8.4,16.8-20.5,31.5-35.2,42.8v10.9
			c13.9-9.6,25.9-21.9,35.2-36.1c9.3,14.2,21.2,26.5,35.2,36.1V57.4C125.4,46.1,113.3,31.4,105,14.6z"/>
		<path id="path7808_1_"  class="st2" d="M105,39.8c-9.6,13.3-21.6,24.7-35.2,33.7v9.9
			C83.1,75.3,95,65.1,105,53.3c10,11.8,21.9,22,35.2,30.1v-9.9C126.5,64.5,114.6,53.1,105,39.8z"/>
		<g id="g3051" transform="translate(-3.2080879,-2.38333)">
			<path id="path4997"  class="st2" d="M108.2,110.8l2.8,1.7l2.5-0.6l-2.4-1.8l1.1-0.5l3.1,0.6
				c4.9-0.9,5.2-2.6,5.3-2.9l-1.5,0.1l2.2-2.7c0.5-0.8,0.4-1.8,0.6-2.7c-0.3-0.4-0.6,0.4-1.2,0.1c0,0,1.5-2.9,1.6-4.4
				c0.3-5.3-0.7-1.6-0.5-2.9c0.3-1.4,0-3.9,0-3.9c-0.4-1-0.2-1.6-2.5-2.9c-1.2-1.3-3.1-4.8-6.8-4.9c0.4-0.1-0.7,1.2,2.9,5.1l-0.2,2
				c0,0.9,0.7,2,1.5,3.2l-0.7-0.5c-0.1-0.1-0.6-0.2-0.8,0.4c0,0.9-0.1,1.1-0.2,1.9c-0.1,0.6,0,2.2,0,3.1c-0.2,0.1-0.3-0.3-0.5-0.2
				l-1.3,1.7l-0.5,3.1l-1.4-1.2c-0.5,0.1-0.7,1.5-1.1,1.9c0,0.9,0.1,1.8,0,2.7l0.4,1.4l-2.4,0.9l-2.4-0.9l0.4-1.4c0-0.9,0-1.9,0-2.7
				c-0.4-0.4-0.6-1.8-1.1-1.9l-1.4,1.2l-0.5-3.1l-1.1-1.5c-0.2-0.2-0.3,0.2-0.5,0.2c0-0.9,0.1-2.5,0-3.1c-0.1-0.8-0.2-1-0.2-1.9
				c-0.2-0.6-0.6-0.4-0.8-0.4l-0.7,0.5c0.9-1.3,1.5-2.3,1.5-3.2l-0.2-2c3.6-3.9,2.5-5.2,2.9-5.1c-3.7,0.2-5.6,3.6-6.8,4.9
				c-2.3,1.2-2.1,1.8-2.5,2.9c0,0-0.3,2.5,0,3.9c0.3,1.3-0.8-2.4-0.5,2.9c0.1,1.4,1.6,4.4,1.6,4.4c-0.5,0.3-0.9-0.5-1.2-0.1
				c0.2,0.9,0.1,1.9,0.6,2.7l2.2,2.7l-1.5-0.1c0.1,0.3,0.4,2,5.3,2.9l2.9-0.8l1.1,0.5l-2.4,1.8l2.5,0.6L108.2,110.8L108.2,110.8z"/>
			<polygon id="polygon4020" class="st2" points="100.4,91 106.4,91 108.2,84.9 108.2,84.9 110.1,91 116.1,91 111.2,94.8 
				113.1,100.9 108.2,97.1 103.4,100.9 105.2,94.8 			"/>
		</g>
	</g>
</g>
<g id="Layer_1">
</g>
</svg>
