<?xml version="1.0" encoding="utf-8"?>
<!-- Generator: Adobe Illustrator 19.2.1, SVG Export Plug-In . SVG Version: 6.00 Build 0)  -->
<svg version="1.1" xmlns="http://www.w3.org/2000/svg" xmlns:xlink="http://www.w3.org/1999/xlink" x="0px" y="0px" width="210px"
	 height="150px" viewBox="0 0 210 150" style="enable-background:new 0 0 210 150;" xml:space="preserve">
<style type="text/css">
	.st0{fill:none;}
	.st1{fill:#1A374F;}
	.st2{fill:#F3C463;}
</style>
<g id="Layer_2">
	<rect class="st0" width="210" height="150"/>
	<g id="layer1" transform="translate(-331.5,-447.09375)">
		<path id="path7748"  class="st1" d="M436.6,447.6c-7.8,21.6-21.8,40.3-39.8,53.9v83.1
			c11.3,7.5,24.9,12,39.6,12c0.1,0,0.1,0,0.1,0c0.1,0,0.1,0,0.1,0c14.6,0,28.2-4.4,39.6-12v-83.1
			C458.3,487.9,444.4,469.2,436.6,447.6z"/>
		<path id="path7750"  class="st2" d="M401.3,537.3v11.5c7.7,11.1,20.5,18.3,35,18.3
			c14.8,0,27.9-7.6,35.5-19.1v-10.8h-3.7c-5,12.7-17.4,21.6-31.9,21.6s-26.8-9-31.9-21.6L401.3,537.3L401.3,537.3z"/>
		<path id="path7752"  class="st2" d="M471.8,554.6c-8.5,10.1-21.3,16.5-35.5,16.5
			c-13.9,0-26.4-6.2-35-15.8v11.5c9.5,7.9,21.7,12.6,35,12.6c13.5,0,25.9-4.9,35.5-13.1V554.6z"/>
		<path id="path7754"  class="st2" d="M471.8,571c-9.8,7.5-22.1,12-35.5,12
			c-13.1,0-25.2-4.4-35-11.7v10.2c10.2,6.2,22.1,9.9,35,9.9c13,0,25.2-3.7,35.5-10.2V571z"/>
		<path id="path7756"  class="st2" d="M436.6,461.6c-8.3,16.8-20.4,31.5-35.2,42.8v10.9
			c13.9-9.7,25.9-21.9,35.2-36.1c9.3,14.2,21.3,26.4,35.2,36.1v-10.9C457,493.1,444.9,478.4,436.6,461.6L436.6,461.6z"/>
		<path id="path7758"  class="st2" d="M436.6,486.9c-9.6,13.3-21.6,24.6-35.2,33.7v9.9
			c13.3-8.1,25.2-18.3,35.2-30.1c10,11.8,21.9,22,35.2,30.1v-10C458.1,511.5,446.2,500,436.6,486.9L436.6,486.9z"/>
		<path id="path7760"  class="st2" d="M436.6,507.1c-10.2,11.2-22.1,20.8-35.2,28.5v9.6
			c13-7,24.8-15.8,35.2-26.1c10.5,10.2,22.3,19.1,35.2,26.1v-9.6C458.6,528,446.7,518.4,436.6,507.1z"/>
	</g>
</g>
<g id="Layer_1">
</g>
</svg>
