<?xml version="1.0" encoding="utf-8"?>
<!-- Generator: Adobe Illustrator 19.2.1, SVG Export Plug-In . SVG Version: 6.00 Build 0)  -->
<svg version="1.1" id="Layer_1" xmlns="http://www.w3.org/2000/svg" xmlns:xlink="http://www.w3.org/1999/xlink" x="0px" y="0px"
	 width="210px" height="150px" viewBox="0 0 210 150" style="enable-background:new 0 0 210 150;" xml:space="preserve">
<style type="text/css">
	.st0{opacity:0;fill:#FFFFFF;}
	.st1{fill:#1A374F;}
	.st2{fill:#F3C463;}
</style>
<rect class="st0" width="210" height="150"/>
<g id="g3041" transform="translate(-307.9375,-527.03125)">
	<path id="path7835" class="st1" d="M412.9,527c-12.4,34.4-34.6,64.1-63.2,85.8v30.7
		c0.4,0.6,0.9,1.3,1.4,1.9c13.8,19.1,36.2,31.7,61.6,31.7c0.1,0,0.2,0,0.3,0c0.1,0,0.2,0,0.3,0c25.4,0,47.8-12.5,61.6-31.7
		c0.5-0.6,0.9-1.3,1.4-1.9v-30.7C447.5,591.1,425.3,561.4,412.9,527z"/>
	<path id="path7839"  class="st2" d="M412.9,549.3c-13.3,26.8-32.5,50.1-56,68.1v3.6h0v18.4
		c12.2,17.6,32.6,29.1,55.6,29.1c23.6,0,44.3-12.1,56.4-30.3v-17.2h0v-3.6C445.4,599.3,426.2,576,412.9,549.3L412.9,549.3z
		 M412.9,577.4c12.7,19.4,28.5,36.5,46.8,50.6c-9.4,16.3-27,27.3-47.2,27.3c-20,0-37.5-10.8-47-26.8
		C384,614.2,400.1,596.9,412.9,577.4z"/>
</g>
</svg>
