<?xml version="1.0" encoding="utf-8"?>
<!-- Generator: Adobe Illustrator 19.2.1, SVG Export Plug-In . SVG Version: 6.00 Build 0)  -->
<svg version="1.1" xmlns="http://www.w3.org/2000/svg" xmlns:xlink="http://www.w3.org/1999/xlink" x="0px" y="0px" width="210px"
	 height="150px" viewBox="0 0 210 150" style="enable-background:new 0 0 210 150;" xml:space="preserve">
<style type="text/css">
	.st0{fill:none;}
	.st1{fill:#1A374F;}
	.st2{fill:#F3C463;}
</style>
<g id="Layer_2">
	<rect class="st0" width="210" height="150"/>
	<g id="layer1" transform="translate(-216.5,-425.375)">
		<path id="path7703" class="st1" d="M321.6,425.9c-8.5,23.6-23.7,43.9-43.3,58.7v73.8
			c11.5,10.2,26.6,16.5,43.1,16.5c0.1,0,0.1,0,0.1,0c0.1,0,0.1,0,0.1,0c16.5,0,31.7-6.2,43.1-16.5v-73.8
			C345.3,469.8,330.1,449.5,321.6,425.9z"/>
		<path id="path7705" class="st2" d="M321.6,490.7c-11.1,12.2-24,22.7-38.3,31v14.4
			c8.4,12,22.3,20,38.1,20c16.1,0,30.4-8.2,38.7-20.8v-13.5C345.6,513.4,332.7,503,321.6,490.7L321.6,490.7z M321.6,503.8
			c9.6,9.5,20.3,17.8,31.9,24.8c-6.4,11.1-18.5,18.6-32.2,18.6c-13.6,0-25.6-7.3-32.1-18.3C301,521.8,311.8,513.4,321.6,503.8
			L321.6,503.8z"/>
		<path id="path7707" class="st2" d="M360,542.4c-9.3,11-23.1,18-38.7,18
			c-15.2,0-28.8-6.7-38.1-17.3v12.5c10.3,8.6,23.6,13.8,38.1,13.8c14.8,0,28.2-5.4,38.7-14.3V542.4z"/>
		<path id="path7709" class="st2" d="M321.6,441.1c-9.1,18.3-22.3,34.3-38.3,46.7v11.9
			c15.2-10.5,28.2-23.9,38.3-39.3c10.1,15.4,23.2,28.8,38.3,39.3v-11.9C343.8,475.4,330.7,459.4,321.6,441.1z"/>
		<path id="path7711" class="st2" d="M321.6,468.6c-10.5,14.4-23.5,26.9-38.3,36.7V516
			c14.5-8.8,27.4-19.9,38.3-32.8c10.9,12.9,23.9,24,38.3,32.8v-10.7C345.1,495.5,332,483.1,321.6,468.6z"/>
	</g>
</g>
<g id="Layer_1">
</g>
</svg>
