<?xml version="1.0" encoding="utf-8"?>
<!-- Generator: Adobe Illustrator 19.2.1, SVG Export Plug-In . SVG Version: 6.00 Build 0)  -->
<svg version="1.1" xmlns="http://www.w3.org/2000/svg" xmlns:xlink="http://www.w3.org/1999/xlink" x="0px" y="0px" width="210px"
	 height="150px" viewBox="0 0 210 150" style="enable-background:new 0 0 210 150;" xml:space="preserve">
<style type="text/css">
	.st0{fill:none;}
	.st1{fill:#1A374F;}
	.st2{fill:#F3C463;}
</style>
<g id="Layer_2">
	<rect class="st0" width="210" height="150"/>
	<g id="layer1_1_" transform="translate(-331.5,-460.3125)">
		<path id="path7686"  class="st1" d="M436.5,460.9c-9.3,25.8-25.9,48.1-47.4,64.3v59.5
			c0.4,0.5,0.6,0.9,1,1.4c10.3,14.3,27.1,23.7,46.2,23.7c0.1,0,0.1,0,0.2,0s0.1,0,0.2,0c19.1,0,35.8-9.4,46.2-23.7
			c0.4-0.5,0.7-0.9,1-1.4v-59.5C462.4,509,445.8,486.7,436.5,460.9z"/>
		<path id="path7688"  class="st2" d="M436.5,531.9c-12.1,13.3-26.3,24.9-42,34v15.7
			c9.2,13.2,24.4,21.8,41.7,21.8c17.7,0,33.2-9,42.3-22.8v-14.8C462.7,556.7,448.6,545.3,436.5,531.9L436.5,531.9z M436.5,546.2
			c10.5,10.3,22.3,19.5,35,27.1c-7.1,12.1-20.3,20.3-35.3,20.3c-14.9,0-28-8-35.1-20C414,565.9,425.8,556.7,436.5,546.2z"/>
		<path id="path7690"  class="st2" d="M436.5,477.6c-10,20.1-24.4,37.5-42,51.1v13
			c16.6-11.5,30.9-26.1,42-43c11.1,16.9,25.4,31.5,42,43v-13C460.9,515.1,446.4,497.6,436.5,477.6L436.5,477.6z"/>
		<path id="path7692"  class="st2" d="M436.5,507.7c-11.5,15.8-25.7,29.4-42,40.2v11.7
			c15.8-9.7,30-21.8,42-35.9c12,14.1,26.1,26.2,42,35.9v-11.7C462.2,537.1,447.9,523.4,436.5,507.7L436.5,507.7z"/>
	</g>
</g>
<g id="Layer_1">
</g>
</svg>
